<?xml version="1.0" encoding="utf-8"?>
<!-- Generator: Adobe Illustrator 16.0.0, SVG Export Plug-In . SVG Version: 6.00 Build 0)  -->
<!DOCTYPE svg PUBLIC "-//W3C//DTD SVG 1.1//EN" "http://www.w3.org/Graphics/SVG/1.1/DTD/svg11.dtd">
<svg version="1.1" id="Layer_1" xmlns="http://www.w3.org/2000/svg" xmlns:xlink="http://www.w3.org/1999/xlink" x="0px" y="0px"
	 width="782px" height="199px" viewBox="22.445 209.14 782 199" enable-background="new 22.445 209.14 782 199"
	 xml:space="preserve">
<g>
	<g>
		<path fill="#003595" d="M627.545,363.968c-5.246,0-8.869,1.873-8.869,1.873l1.124,5.371c6.371-2.997,10.118-1.499,10.118,1
			c0,2.623,0,3.622,0,3.622s-1.249,0-5.121,0c-3.873,0-7.62,2.248-7.495,7.994c0,5.621,2.124,8.369,6.745,8.369
			c4.497,0,6.495-2.498,6.495-2.498s0.625,1.998,1.374,1.998c0.75,0,4.372,0,4.372,0s0-15.863,0-20.61
			C636.163,366.216,632.791,363.968,627.545,363.968 M629.793,386.326c-1.124,1.124-6.121,1.999-6.121-1.873
			c0-3.873,1.999-3.748,3.248-3.748s2.873,0,2.873,0S629.793,384.827,629.793,386.326"/>
		<path fill="#003595" d="M670.639,363.968c-5.246,0-8.869,1.873-8.869,1.873l1.125,5.371c6.37-2.997,10.117-1.499,10.117,1
			c0,2.623,0,3.622,0,3.622s-1.249,0-5.121,0s-7.619,2.248-7.495,7.994c0,5.621,2.124,8.369,6.745,8.369
			c4.497,0,6.496-2.498,6.496-2.498s0.624,1.998,1.373,1.998c0.75,0,4.372,0,4.372,0s0-15.863,0-20.61
			C679.132,366.216,675.76,363.968,670.639,363.968 M672.762,386.326c-1.124,1.249-6.121,1.999-6.121-1.873
			c0-3.873,1.999-3.748,3.248-3.748s2.873,0,2.873,0S672.762,384.827,672.762,386.326"/>
		<path fill="#003595" d="M645.406,366.091c0-6.245,0-12.366,0-12.366h-6.37l0.25,37.349c3.622,1.124,4.746,1.124,8.244,1.124
			c3.372,0,10.742-0.75,10.742-8.369s0-7.869,0-13.115C658.148,364.592,652.402,361.844,645.406,366.091 M651.903,384.453
			c0,1.873-1.749,2.373-3.373,2.373s-3.123-0.125-3.123-0.125v-15.988c0,0,1.499-1.249,3.873-1.249c2.373,0,2.623,1.124,2.623,2.373
			C651.903,373.211,651.903,382.579,651.903,384.453"/>
		<path fill="#003595" d="M733.968,365.966c0-6.245,0-12.366,0-12.366h-6.371l0.25,37.349c3.622,1.124,4.747,1.124,8.244,1.124
			c3.372,0,10.742-0.75,10.742-8.369s0-7.744,0-13.115C746.708,364.467,740.963,361.844,733.968,365.966 M740.463,384.453
			c0,1.873-1.749,2.373-3.373,2.373c-1.623,0-3.122-0.125-3.122-0.125v-15.988c0,0,1.499-1.249,3.872-1.249s2.623,1.124,2.623,2.373
			C740.463,373.211,740.463,382.454,740.463,384.453"/>
		<path fill="#003595" d="M692.497,375.334c-2.872-0.999-4.496-1.499-4.496-3.747c0-1.374,0.749-2.248,2.998-2.248
			c3.122,0,5.995,0.999,5.995,0.999l0.75-5.121c0,0-3.998-1.249-7.12-1.249c-3.123,0-8.993,0.749-8.868,7.994
			c0.124,6.995,3.747,7.744,7.244,9.243c2.123,0.874,3.622,1.874,3.248,3.747c-0.375,1.749-1.499,2.498-4.497,2.124
			c-2.873-0.375-4.747-1.25-4.747-1.25l-0.999,5.372c0,0,2.748,0.874,6.87,1.374c7.12,0.874,9.118-3.498,9.493-8.369
			C698.868,379.706,697.744,376.958,692.497,375.334"/>
		<path fill="#003595" d="M709.361,356.597l-6.245,0.875v6.994h-2.998v5.746h2.998c0,0,0,11.617,0,15.988
			c0,4.372,2.872,5.746,5.87,5.746s5.246-0.874,5.246-0.874l-0.374-4.997c-3.498,1.624-4.747,0.125-4.747-1.249
			c0-1.249,0-14.739,0-14.739h5.121l0.375-5.746h-5.496L709.361,356.597z"/>
		<rect x="717.73" y="364.717" fill="#003595" width="6.37" height="26.855"/>
		<rect x="750.081" y="353.599" fill="#003595" width="6.37" height="37.848"/>
		<rect x="717.73" y="353.724" fill="#003595" width="6.37" height="7.495"/>
		<path fill="#003595" d="M777.811,390.698l-1.124-4.871c0,0-2.248,1.124-5.746,1.124c-3.622,0-4.996-1.374-4.996-3.623
			c0-2.248,0-2.997,0-2.997h11.866c0,0,0-3.873,0-8.244c0-4.372-2.998-8.119-8.993-8.119c-5.996,0-9.118,4.372-9.118,8.369
			s0,8.368,0,12.116c0,3.747,3.372,7.619,9.368,7.619c5.995,0,8.743-1.249,8.743-1.249V390.698z M765.82,371.462
			c0-1.749,1.499-2.498,2.998-2.498c1.249,0,2.997,0.375,2.997,2.498c0,2.249,0,3.997,0,3.997h-6.12
			C765.82,375.334,765.82,373.211,765.82,371.462"/>
		<path fill="#003595" d="M276.05,281.901l4.871-30.353c0.375-2.498,1.624-3.622,4.122-3.622h8.993c2.374,0,3.373,1.124,3.123,3.622
			l-10.867,68.326c-1.873,11.616-8.494,19.485-22.483,19.485H220.09c-10.367,0-16.862-6.245-16.862-15.738
			c0-1.124,0.125-2.374,0.375-3.747l4.122-25.482c1.873-11.616,8.618-19.485,22.483-19.485h31.602
			C268.93,275.032,273.552,277.655,276.05,281.901 M273.552,297.765c0.125-0.625,0.125-1.249,0.125-1.874
			c0-4.247-2.624-6.745-7.245-6.745h-33.351c-5.246,0-8.994,3.248-9.868,8.494l-2.998,18.861c-0.125,0.625-0.125,1.249-0.125,1.874
			c0,4.246,2.623,6.62,7.245,6.62h33.351c5.371,0,8.994-3.248,9.868-8.494L273.552,297.765z"/>
		<path fill="#003595" d="M302.281,278.654c0.375-2.498,1.749-3.622,4.122-3.622h8.994c2.498,0,3.372,1.124,2.997,3.622
			l-5.995,37.973c-0.125,0.624-0.125,1.249-0.125,1.873c0,4.247,2.623,6.746,7.244,6.746h31.353c5.371,0,9.118-3.248,9.868-8.494
			l6.12-37.973c0.375-2.498,1.749-3.623,4.122-3.623h8.994c2.498,0,3.372,1.125,2.997,3.623l-6.495,41.345
			c-1.998,11.617-8.618,19.486-22.483,19.486h-41.845c-10.242,0-16.863-6.121-16.863-15.614c0-1.249,0.125-2.498,0.375-3.872
			L302.281,278.654z"/>
		<path fill="#003595" d="M412.575,275.032h30.853c2.374,0,3.373,1.124,2.998,3.622l-1.124,6.995
			c-0.375,2.498-1.624,3.622-4.122,3.622h-25.606c-5.371,0-8.993,3.248-9.867,8.494l-6.121,37.973
			c-0.375,2.498-1.624,3.622-4.122,3.622h-8.993c-2.373,0-3.498-1.124-3.123-3.622l6.62-41.346
			C391.716,282.776,398.711,275.032,412.575,275.032"/>
		<path fill="#003595" d="M463.413,301.013h47.966l0.499-3.248c0.125-0.625,0.125-1.249,0.125-1.874
			c0-4.247-2.623-6.745-7.244-6.745h-50.714c-2.498,0-3.622-1.124-3.122-3.622l1.124-6.995c0.375-2.498,1.749-3.622,4.122-3.622
			h55.959c10.243,0,16.613,6.245,16.613,15.738c0,1.124,0,2.498-0.25,3.747l-4.247,26.731c-1.873,11.616-7.119,18.236-20.984,18.236
			h-45.967c-9.993,0-15.239-4.746-15.239-13.49c0-1.249,0.125-2.623,0.375-4.122l0.5-3.248
			C444.802,307.134,449.674,301.013,463.413,301.013 M501.386,325.121c4.247,0,6.62-2.249,6.995-6.246l0.874-5.621h-43.718
			c-3.997,0-5.871,1.999-6.495,5.621l-0.125,0.75c-0.125,0.624-0.125,0.999-0.125,1.499c0,2.747,1.374,3.997,4.871,3.997H501.386
			L501.386,325.121z"/>
		<path fill="#003595" d="M536.861,294.517c1.874-11.616,8.618-19.485,22.483-19.485h43.719c10.242,0,16.612,6.245,16.612,15.738
			c0,1.124,0,2.498-0.249,3.747l-7.994,50.089c-1.874,12.99-9.244,21.109-24.357,21.109h-54.461c-2.373,0-3.373-1.124-2.998-3.622
			l1-6.495c0.374-2.498,1.748-3.622,4.246-3.622h50.089c5.996,0,9.743-3.373,10.742-9.243l1.499-10.243
			c-3.747,4.247-8.993,6.745-16.363,6.745h-31.602c-10.367,0-16.863-6.245-16.863-15.738c0-1.124,0.125-2.373,0.375-3.747
			L536.861,294.517z M602.813,297.765c0.125-0.625,0.125-1.124,0.125-1.624c0-4.372-2.748-6.87-7.245-6.87h-33.351
			c-5.246,0-8.993,3.248-9.868,8.494l-2.997,18.861c-0.125,0.624-0.125,1.249-0.125,1.873c0,4.247,2.623,6.621,7.244,6.621h33.227
			c5.371,0,9.118-3.248,9.867-8.494L602.813,297.765z"/>
		<path fill="#003595" d="M643.033,301.013h47.965l0.5-3.248c0.125-0.625,0.125-1.249,0.125-1.874c0-4.247-2.623-6.745-7.244-6.745
			h-50.714c-2.498,0-3.622-1.124-3.123-3.622l1.125-6.995c0.374-2.498,1.748-3.622,4.122-3.622h56.084
			c10.242,0,16.613,6.245,16.613,15.738c0,1.124,0,2.498-0.25,3.747l-4.247,26.731c-1.874,11.616-7.12,18.236-20.985,18.236h-45.966
			c-9.993,0-15.239-4.746-15.239-13.49c0-1.249,0.125-2.623,0.375-4.122l0.499-3.248
			C624.547,307.134,629.293,301.013,643.033,301.013 M681.131,325.121c4.247,0,6.62-2.249,6.995-6.246l0.874-5.621h-43.719
			c-3.997,0-5.87,1.999-6.495,5.621l-0.125,0.75c-0.125,0.624-0.125,0.999-0.125,1.499c0,2.747,1.374,3.997,4.872,3.997H681.131
			L681.131,325.121z"/>
		<path fill="#003595" d="M714.857,292.643c1.624-11.491,6.62-17.611,20.36-17.611h57.208c2.374,0,3.373,1.124,2.998,3.622
			l-1.249,6.995c-0.375,2.498-1.624,3.622-3.997,3.622h-52.962c-4.122,0-5.995,1.874-6.62,5.621l-0.125,0.624
			c-0.125,0.5-0.125,1-0.125,1.499c0,2.623,1.374,4.122,4.872,4.122h41.47c9.868,0,15.114,4.622,15.114,13.241
			c0,1.374,0,2.872-0.25,4.371l-0.5,2.998c-1.873,11.367-6.62,17.862-20.36,17.862h-58.332c-2.499,0-3.498-1.124-3.123-3.622
			l1.124-6.995c0.375-2.498,1.749-3.623,4.247-3.623h54.211c4.122,0,5.87-1.748,6.495-5.495l0.125-0.75
			c0.125-0.624,0.25-1.249,0.25-1.749c0-2.498-1.499-3.872-4.872-3.872h-41.47c-9.992,0-15.114-4.496-15.114-13.24
			c0-1.374,0-3.373,0.25-4.996L714.857,292.643z"/>
	</g>
	<g>
		<g>
			<g>
				<defs>
					<path id="SVGID_1_" d="M34.975,277.405c-1.249,6.745-1.499,13.49-0.875,19.985c12.241-44.593,56.709-73.072,102.926-64.453
						c5.871,1.124,11.367,2.748,16.613,4.871c-9.493-8.743-21.609-14.989-35.225-17.612c-4.497-0.874-8.869-1.249-13.24-1.249
						C71.448,218.947,41.345,242.929,34.975,277.405"/>
				</defs>
				<clipPath id="SVGID_2_">
					<use xlink:href="#SVGID_1_"  overflow="visible"/>
				</clipPath>
				
					<linearGradient id="SVGID_3_" gradientUnits="userSpaceOnUse" x1="397.655" y1="30.6404" x2="399.6192" y2="30.6404" gradientTransform="matrix(-60.4146 5.4714 -5.4714 -60.4146 24363.7168 -73.512)">
					<stop  offset="0" style="stop-color:#EA7F23"/>
					<stop  offset="0.2233" style="stop-color:#EA7F23"/>
					<stop  offset="0.3492" style="stop-color:#EC8B22"/>
					<stop  offset="0.6643" style="stop-color:#EC8B22"/>
					<stop  offset="0.7567" style="stop-color:#EB8225"/>
					<stop  offset="0.9053" style="stop-color:#E86B2F"/>
					<stop  offset="1" style="stop-color:#E65836"/>
				</linearGradient>
				<polygon clip-path="url(#SVGID_2_)" fill="url(#SVGID_3_)" points="160.758,296.765 34.35,308.133 26.356,219.572 
					152.764,208.205 				"/>
			</g>
		</g>
		<g>
			<g>
				<defs>
					<path id="SVGID_4_" d="M108.171,245.178c0,0-39.721,20.984-42.719,22.858C14.99,298.389,48.34,333.864,48.34,333.864
						c-7.744-8.868-2.748-19.86,4.871-25.731c10.243-7.994,29.354-15.988,38.473-20.36c22.233-10.617,32.601-28.854,29.729-52.837
						C117.789,239.057,113.293,242.43,108.171,245.178"/>
				</defs>
				<clipPath id="SVGID_5_">
					<use xlink:href="#SVGID_4_"  overflow="visible"/>
				</clipPath>
				
					<linearGradient id="SVGID_6_" gradientUnits="userSpaceOnUse" x1="397.8079" y1="38.1443" x2="399.7717" y2="38.1443" gradientTransform="matrix(-44.3648 42.9589 -42.9589 -44.3648 19408.3438 -15162.5449)">
					<stop  offset="0" style="stop-color:#C9CD2C"/>
					<stop  offset="0.1119" style="stop-color:#A7C336"/>
					<stop  offset="0.2341" style="stop-color:#86B940"/>
					<stop  offset="0.3068" style="stop-color:#7AB350"/>
					<stop  offset="0.4497" style="stop-color:#5BA57B"/>
					<stop  offset="0.6476" style="stop-color:#2A8DC0"/>
					<stop  offset="0.666" style="stop-color:#258BC7"/>
					<stop  offset="0.7106" style="stop-color:#2882C0"/>
					<stop  offset="0.8978" style="stop-color:#3461A6"/>
					<stop  offset="1" style="stop-color:#38549C"/>
				</linearGradient>
				<polygon clip-path="url(#SVGID_5_)" fill="url(#SVGID_6_)" points="173.624,285.898 67.825,388.45 -34.475,282.776 
					71.323,180.35 				"/>
			</g>
		</g>
		<g>
			<g>
				<defs>
					<path id="SVGID_7_" d="M153.764,249.55L153.764,249.55c-12.616,0.125-27.98,12.991-44.968,54.087
						c-17.237,41.844-41.345,40.845-59.832,30.978c22.733,30.228,65.453,37.598,97.18,16.237
						c30.853-20.859,40.346-61.455,22.733-93.557C167.254,254.172,160.134,249.55,153.764,249.55L153.764,249.55"/>
				</defs>
				<clipPath id="SVGID_8_">
					<use xlink:href="#SVGID_7_"  overflow="visible"/>
				</clipPath>
				
					<linearGradient id="SVGID_9_" gradientUnits="userSpaceOnUse" x1="395.3499" y1="38.7927" x2="397.3137" y2="38.7927" gradientTransform="matrix(-44.0001 58.8186 -58.8186 -44.0001 19850.2773 -21310.334)">
					<stop  offset="0" style="stop-color:#EA7F23"/>
					<stop  offset="0.2233" style="stop-color:#EA7F23"/>
					<stop  offset="0.3492" style="stop-color:#EC8B22"/>
					<stop  offset="0.6643" style="stop-color:#EC8B22"/>
					<stop  offset="0.7567" style="stop-color:#EB8225"/>
					<stop  offset="0.9053" style="stop-color:#E86B2F"/>
					<stop  offset="1" style="stop-color:#E65836"/>
				</linearGradient>
				<polygon clip-path="url(#SVGID_8_)" fill="url(#SVGID_9_)" points="245.323,293.518 137.151,438.164 -9.868,328.243 
					98.304,183.597 				"/>
			</g>
		</g>
	</g>
</g>
</svg>
