<svg width="512" height="512" viewBox="0 0 512 512" fill="none" xmlns="http://www.w3.org/2000/svg">
<g clip-path="url(#clip0)">
<path d="M509.027 2.88503C506.295 0.189031 502.256 -0.710969 498.643 0.583031L83.2899 148.68C68.8599 139.856 50.5569 137.79 33.7699 144.741C5.9049 156.284 -7.3761 188.345 4.1659 216.212C31.3849 281.92 70.6839 340.737 120.975 391.028C171.266 441.319 230.082 480.619 295.791 507.837C302.615 510.663 309.688 512.001 316.652 512.001C338.127 512 358.546 499.275 367.261 478.232C373.125 464.074 372.571 448.836 366.962 435.752L511.463 13.238C512.705 9.60603 511.759 5.58203 509.027 2.88503ZM146.18 147.489L190.2 131.795C195.368 137.301 197.887 144.881 196.878 152.547C195.988 159.297 192.524 165.298 187.123 169.443C181.722 173.588 175.034 175.379 168.279 174.492C161.53 173.603 155.53 170.14 151.385 164.738C147.566 159.761 145.749 153.689 146.18 147.489ZM348.783 470.577C341.461 488.255 321.119 496.68 303.445 489.356C175.405 436.321 75.6819 336.597 22.6449 208.557C19.0979 199.994 19.0979 190.563 22.6449 181.999C26.1919 173.436 32.8609 166.767 41.4239 163.22C49.9869 159.673 59.4189 159.673 67.9819 163.22C76.5449 166.767 83.2139 173.436 86.7609 181.999C109.462 236.806 142.242 285.864 184.19 327.812C226.138 369.76 275.196 402.539 330.003 425.241C347.681 432.562 356.106 452.901 348.783 470.577ZM437.626 167.329C436.721 167.307 435.815 167.255 434.911 167.137C428.162 166.248 422.162 162.784 418.018 157.383C413.873 151.982 412.08 145.289 412.968 138.54C414.803 124.606 427.628 114.764 441.567 116.596C445.867 117.162 449.904 118.83 453.347 121.367L437.626 167.329ZM459.994 101.923C455.122 99.27 449.769 97.503 444.177 96.767C419.306 93.484 396.413 111.061 393.139 135.93C391.553 147.976 394.753 159.919 402.15 169.559C409.275 178.844 419.475 184.91 430.981 186.76L411.105 244.879L388.247 227.339C383.866 223.979 377.587 224.803 374.226 229.185C370.864 233.567 371.691 239.844 376.072 243.206L404.277 264.848L352.583 416.003C348.247 412.233 343.254 409.079 337.661 406.762C231.681 362.863 149.141 280.323 105.244 174.345C103.718 170.659 101.822 167.237 99.6349 164.085L126.414 154.537C127.349 162.605 130.446 170.301 135.519 176.912C142.915 186.552 153.624 192.734 165.67 194.319C167.688 194.585 169.7 194.717 171.702 194.717C181.65 194.717 191.274 191.467 199.299 185.31C208.94 177.912 215.121 167.205 216.708 155.157C218.131 144.342 215.607 133.63 209.94 124.756L334.247 80.434L338.958 91.808C340.554 95.659 344.277 97.984 348.201 97.984C349.476 97.984 350.772 97.738 352.024 97.22C357.126 95.107 359.549 89.256 357.436 84.154L353.11 73.709L485.829 26.387L459.994 101.923Z" fill="white"/>
<path d="M108.001 268.276C107.971 268.229 107.888 268.102 107.856 268.056C104.794 263.463 98.5965 262.23 94.0015 265.289C89.4145 268.343 88.1705 274.542 91.2065 279.137C93.1215 282.079 96.3255 283.684 99.5985 283.684C101.451 283.684 103.324 283.17 104.996 282.095C109.642 279.108 110.987 272.921 108.001 268.276Z" fill="white"/>
<path d="M92.7919 243.433C83.0469 226.347 74.2869 208.465 66.7559 190.286C64.6429 185.182 58.7899 182.762 53.6909 184.875C48.5879 186.988 46.1659 192.838 48.2799 197.94C56.1299 216.891 65.2619 235.531 75.4199 253.341C77.2649 256.575 80.6409 258.389 84.1149 258.389C85.7949 258.389 87.4979 257.965 89.0599 257.074C93.8569 254.337 95.5289 248.23 92.7919 243.433Z" fill="white"/>
<path d="M312.933 127.987C310.951 127.725 308.938 127.593 306.95 127.593C284.233 127.593 264.863 144.598 261.895 167.148C258.621 192.016 276.188 214.912 301.056 218.186C303.038 218.448 305.051 218.58 307.039 218.58C329.755 218.58 349.125 201.575 352.094 179.023C355.367 154.156 337.8 131.261 312.933 127.987ZM332.266 176.413C330.602 189.05 319.757 198.579 307.039 198.579C305.921 198.579 304.786 198.505 303.667 198.357C289.732 196.522 279.89 183.693 281.724 169.758C283.388 157.122 294.232 147.594 306.95 147.594C308.068 147.594 309.203 147.668 310.322 147.816C324.256 149.652 334.1 162.48 332.266 176.413Z" fill="white"/>
<path d="M310.332 252.374C308.349 252.112 306.337 251.98 304.349 251.98C281.632 251.98 262.262 268.985 259.294 291.536C257.707 303.583 260.907 315.525 268.304 325.166C275.7 334.806 286.408 340.988 298.455 342.575C300.436 342.836 302.448 342.967 304.435 342.967C327.152 342.967 346.523 325.962 349.492 303.41C352.767 278.544 335.199 255.65 310.332 252.374ZM329.665 300.801C328.001 313.438 317.155 322.967 304.437 322.967C303.32 322.967 302.185 322.892 301.067 322.745C294.317 321.855 288.317 318.391 284.172 312.99C280.027 307.589 278.234 300.897 279.123 294.146C280.787 281.51 291.632 271.981 304.349 271.981C305.467 271.981 306.602 272.055 307.721 272.203C321.654 274.038 331.498 286.867 329.665 300.801Z" fill="white"/>
<path d="M244.375 210.946L213.639 206.899C208.166 206.172 203.14 210.032 202.419 215.507C201.697 220.983 205.552 226.006 211.027 226.727L241.763 230.774C242.206 230.833 242.646 230.861 243.081 230.861C248.022 230.861 252.32 227.198 252.982 222.166C253.705 216.691 249.851 211.667 244.375 210.946Z" fill="white"/>
<path d="M228.791 284.743L226.077 264.119C225.356 258.643 220.334 254.787 214.858 255.51C209.382 256.231 205.528 261.253 206.249 266.729L208.964 287.353C209.626 292.386 213.923 296.049 218.865 296.049C219.3 296.049 219.74 296.021 220.182 295.962C225.658 295.241 229.512 290.219 228.791 284.743Z" fill="white"/>
</g>
<defs>
<clipPath id="clip0">
<rect width="512.001" height="512.001" fill="white"/>
</clipPath>
</defs>
</svg>
