<?xml version="1.0" encoding="utf-8"?>
<!-- Generator: Adobe Illustrator 19.0.0, SVG Export Plug-In . SVG Version: 6.00 Build 0)  -->
<svg version="1.1" id="layer" xmlns="http://www.w3.org/2000/svg" xmlns:xlink="http://www.w3.org/1999/xlink" x="0px" y="0px"
	 viewBox="-153 -46 652 652" style="enable-background:new -153 -46 652 652;" xml:space="preserve">
<path d="M49.3,284.3h420.8v2.8H49.3V284.3z M51.3,231.2c2.7-6.7,8.9-8.2,14.3-8.2v33.7c0,2.8-1.3,4.5-6,4.5v2.7h20.6l0.3-2.2
	l-0.3-0.4c-4.9,0-6.1-1.5-6.1-4.5V223c5.4,0,11.6,1.5,14.3,8.2l1.3-0.4l0.3-0.6L88.5,220H51.3l-1.5,10.1l0.3,0.6L51.3,231.2z
	 M148.5,254.3l-0.3-0.6l-1.2-0.4c-3.1,6.6-8.6,7.9-11.6,7.9h-6.1c-3.6,0-4.8-1.6-4.8-4.5v-13.6h8.2c3.1,0,4.6,1.2,4.6,5.7l0.4,0.3
	l2.1-0.3v-14.9h-2.7c0,5.2-1.6,6.6-4.6,6.6h-8.2v-13.3c0-2.8,1.2-4.5,5.4-4.5h3.6c5.2,0,8,2.4,8.5,7.8h1.3l0.4-0.3l2.2-9.5L145,220
	h-34.6v2.7c4.3,0,5.5,1.5,5.5,4.5v29.7c0,2.8-1.3,4.5-5.5,4.5v2.7h35.3L148.5,254.3z M189.5,261.8l-0.3-0.4c-4.8,0-6-1.5-6-4.5V244
	c2.1,0,3.9,0.7,5.2,1.9c2.8,2.4,4.2,6.3,5.4,9.7c1.6,5.2,3.7,9.2,10.1,9.2c3.6,0,6-1.3,7.8-3.1l0.4-1.3l-0.4-0.6
	c-1.2,0.4-2.1,0.7-3.4,0.7c-3.4,0-5.5-4.2-7.5-8.9c-1.5-3.9-4-7.3-7.8-7.8v-0.4c7.9-1.6,10.4-7,10.4-10.9c0-5.7-2.2-12.1-14.5-12.1
	h-19.8v2.7c4.3,0,5.5,1.5,5.5,4.5v29.7c0,2.8-1.3,4.5-5.5,4.5v2.7h20.1L189.5,261.8z M183.2,227.2c0-2.7,1-4.5,5.1-4.5
	c4.9,0,7.2,3.7,7.2,7.9c0,6-3,10.6-10.1,10.6c-0.6,0-1.5,0-2.1,0V227.2z M253.7,261.8l-0.3-0.4c-4.8,0-6-1.5-6-4.5V244
	c2.1,0,3.9,0.7,5.2,1.9c2.8,2.4,4.2,6.3,5.4,9.7c1.6,5.2,3.7,9.2,10.1,9.2c3.6,0,6-1.3,7.8-3.1l0.4-1.3l-0.4-0.6
	c-1.2,0.4-2.1,0.7-3.4,0.7c-3.4,0-5.5-4.2-7.5-8.9c-1.5-3.9-4-7.3-7.8-7.8v-0.4c7.9-1.6,10.4-7,10.4-10.9c0-5.7-2.2-12.1-14.5-12.1
	h-20v2.7c4.3,0,5.5,1.5,5.5,4.5v29.7c0,2.8-1.3,4.5-5.5,4.5v2.7h20.1L253.7,261.8z M247.4,227.2c0-2.7,1-4.5,5.1-4.5
	c4.9,0,7.2,3.7,7.2,7.9c0,6-3,10.6-10.1,10.6c-0.6,0-1.5,0-2.1,0L247.4,227.2L247.4,227.2z M335.5,254.3l-0.3-0.6l-1.2-0.4
	c-3.1,6.6-8.6,7.9-11.6,7.9h-6.1c-3.6,0-4.8-1.6-4.8-4.5v-13.6h8.2c3.1,0,4.6,1.2,4.6,5.7l0.4,0.3l2.1-0.3v-14.9h-2.7
	c0,5.2-1.5,6.6-4.6,6.6h-8.2v-13.3c0-2.8,1.2-4.5,5.4-4.5h3.6c5.2,0,8,2.4,8.6,7.8h1.3l0.4-0.3l2.2-9.5l-0.7-0.6h-34.6v2.7
	c4.3,0,5.5,1.5,5.5,4.5v29.7c0,2.8-1.3,4.5-5.5,4.5v2.7H333L335.5,254.3z M373,261.8l-0.3-0.4c-5.7,0-6.9-1.5-6.9-4.5v-29.2l30,36.2
	h3.3v-36.7c0-2.8,1.2-4.5,5.7-4.5l0.3-0.4l-0.3-2.1h-16.2v2.7c5.4,0,6.7,1.5,6.7,4.5v23.4l-24.7-30.6h-14v2.7c4.3,0,5.5,1.6,5.5,4.2
	v30c0,2.8-1.3,4.5-5.5,4.5v2.7h16.2L373,261.8z M447.2,264.7c13.3,0,22.7-8.9,22.7-22.7c0-13.9-9.4-23-22.7-23
	c-13.3,0-22.7,9.1-22.7,23C424.5,255.8,433.9,264.7,447.2,264.7z M447.2,222.1c8.8,0,13.3,8.6,13.3,19.8c0,11.3-4.6,19.8-13.3,19.8
	c-8.8,0-13.3-8.5-13.3-19.7C433.9,230.8,438.4,222.1,447.2,222.1z M70.2,325c-1.9,4-5.4,4.2-7.6,4.2c-5.2,0-8.8-4-8.8-10.4
	s3.6-10.6,8.6-10.6c3,0,5.7,1.3,6,4.2h0.4l0.3-0.1l1.2-5.2l-0.3-0.3c-0.3,0.1-0.9,0.4-1.8,0.4c-1,0-3.7-0.4-5.1-0.4
	c-7.2,0-12.8,4-12.8,11.9s5.7,11.9,13,11.9c1.9,0,5.2-0.4,6.4-1.2l1-4l-0.1-0.3H70.2z M104.8,308.6l0.1-0.3l-0.1-0.9h-9.1v1.2
	c2.2,0,2.8,0.7,2.8,2.4v7.2H86.2v-7.2c0-1.5,0.6-2.4,3.1-2.4l0.1-0.3l-0.1-0.9h-9.1v1.2c2.2,0,3,0.7,3,2.4v15.8c0,1.5-0.7,2.4-3,2.4
	v1.2h9.1l0.1-0.9l-0.1-0.3c-2.5,0-3.1-0.7-3.1-2.4v-7.3h12.4v7.3c0,1.5-0.7,2.4-2.8,2.4v1.2h9.1l0.1-0.9l-0.1-0.3
	c-2.5,0-3.1-0.7-3.1-2.4v-15.8C101.7,309.5,102.3,308.6,104.8,308.6z M123.7,308.6l0.1-0.3l-0.1-0.9h-8.9v1.2c2.2,0,3,0.7,3,2.4
	v15.8c0,1.5-0.7,2.4-3,2.4v1.2h8.9l0.1-0.9l-0.1-0.3c-2.4,0-3-0.7-3-2.4v-15.8C120.7,309.5,121.3,308.6,123.7,308.6z M152.5,327
	l-6.9-19.8l-0.1-0.1l-2.8,0.3l-7.3,19.7c-0.3,0.7-0.6,1.5-1.6,1.9l-1.2,0.4v0.7h7.5v-0.9l-2.2-0.6c-0.6-0.1-0.7-0.4-0.7-0.9
	c0-0.3,0.1-0.7,0.3-1l1.9-5.8h7.9l1.9,5.7c0.1,0.4,0.3,0.9,0.3,1c0,0.4-0.3,0.6-0.9,0.9l-2.1,0.6v0.9h9.2v-0.9l-1.3-0.4
	C153.1,328.5,152.6,327.8,152.5,327z M139.7,319.7l3.4-10.3l3.4,10.3H139.7z M180.8,307.4v1.2c2.8,0,3.4,0.7,3.4,2.4v13.6
	l-13.7-17.1h-6.4v1.2c2.2,0,3,0.9,3,2.2v15.9c0,1.5-0.7,2.4-3,2.4v1.2h8.2l0.1-0.9l-0.1-0.3c-3,0-3.6-0.7-3.6-2.4v-16.1l16.1,19.7
	h1.2v-19.4c0-1.5,0.6-2.4,3-2.4l0.1-0.3l-0.1-0.9C189,307.4,180.8,307.4,180.8,307.4z M198.3,307.4l-0.7,4.9l0.1,0.3l0.4,0.1
	c1.3-3.4,4.6-4.2,7.6-4.2v18.2c0,1.5-0.7,2.4-3.1,2.4v1.2h9.4l0.1-0.9l-0.1-0.3c-2.5,0-3.1-0.7-3.1-2.4v-18.2c3,0,6.1,0.7,7.6,4.2
	l0.4-0.1l0.1-0.3l-0.7-4.9C216.3,307.4,198.3,307.4,198.3,307.4z M234.5,308.6l0.1-0.3l-0.1-0.9h-8.9v1.2c2.2,0,3,0.7,3,2.4v15.8
	c0,1.5-0.7,2.4-3,2.4v1.2h8.9l0.1-0.9l-0.1-0.3c-2.4,0-3-0.7-3-2.4v-15.8C231.5,309.5,232.1,308.6,234.5,308.6z M281.3,325
	c-1.9,4-5.4,4.2-7.6,4.2c-5.2,0-8.8-4-8.8-10.4s3.6-10.6,8.6-10.6c3,0,5.7,1.3,6,4.2h0.4l0.3-0.1l1.2-5.2l-0.3-0.3
	c-0.3,0.1-0.9,0.4-1.8,0.4c-1,0-3.7-0.4-5.1-0.4c-7.2,0-12.8,4-12.8,11.9s5.7,11.9,13,11.9c1.9,0,5.2-0.4,6.4-1.2l1-4l-0.1-0.3
	H281.3z M308.6,325.1c-1.6,3.4-4.3,4-5.8,4h-3c-1.9,0-2.5-0.7-2.5-2.4v-15.8c0-1.5,0.6-2.4,3.1-2.4l0.1-0.3l-0.1-0.9h-9.1v1.2
	c2.2,0,3,0.7,3,2.4v15.8c0,1.5-0.7,2.4-3,2.4v1.2h16.5l1.3-4.8l-0.1-0.3L308.6,325.1z M337.5,327l-6.9-19.8l-0.1-0.1l-2.8,0.3
	l-7.3,19.7c-0.3,0.7-0.6,1.5-1.6,1.9l-1.2,0.4v0.7h7.5v-0.9l-2.2-0.6c-0.6-0.1-0.7-0.4-0.7-0.9c0-0.3,0.1-0.7,0.3-1l1.9-5.8h7.9
	l1.9,5.7c0.1,0.4,0.3,0.9,0.3,1c0,0.4-0.3,0.6-0.9,0.9l-2.1,0.6v0.9h9.2v-0.9l-1.3-0.4C338.2,328.5,337.8,327.8,337.5,327z
	 M324.7,319.7l3.4-10.3l3.4,10.3H324.7z M351.9,311.8c0-2.4,2.1-3.4,4.5-3.4c3.4,0,4.9,2.4,4.9,4.3h0.6l0.3-0.1l1.2-5.2l-0.3-0.3
	c-0.6,0.4-1.6,0.4-2.1,0.4s-3-0.4-4.5-0.4c-3.1,0-7,2.1-7,6.1c0,7.6,11.9,6.6,11.9,12.4c0,3-2.2,4-5.1,4c-2.8,0-5.8-1.9-5.8-5.7
	l-1.3,0.1l-0.3,0.3l0.3,5.1c3.3,1.6,6.4,1.6,7.5,1.6c3.7,0,7.6-2.7,7.6-6.7C364.2,316.8,351.9,318,351.9,311.8z M376.2,311.8
	c0-2.4,2.1-3.4,4.5-3.4c3.4,0,4.9,2.4,4.9,4.3h0.6l0.3-0.1l1.2-5.2l-0.3-0.3c-0.6,0.4-1.6,0.4-2.1,0.4s-3-0.4-4.5-0.4
	c-3.1,0-7,2.1-7,6.1c0,7.6,11.9,6.6,11.9,12.4c0,3-2.2,4-5.1,4c-2.8,0-5.8-1.9-5.8-5.7l-1.3,0.1l-0.3,0.3l0.3,5.1
	c3.3,1.6,6.4,1.6,7.5,1.6c3.7,0,7.6-2.7,7.6-6.7C388.3,316.8,376.2,318,376.2,311.8z M406.6,308.6l0.1-0.3l-0.1-0.9h-8.9v1.2
	c2.2,0,3,0.7,3,2.4v15.8c0,1.5-0.7,2.4-3,2.4v1.2h8.9l0.1-0.9l-0.1-0.3c-2.4,0-3-0.7-3-2.4v-15.8
	C403.7,309.5,404.3,308.6,406.6,308.6z M436,325c-1.9,4-5.4,4.2-7.6,4.2c-5.2,0-8.8-4-8.8-10.4s3.6-10.6,8.6-10.6c3,0,5.7,1.3,6,4.2
	h0.4l0.3-0.1l1.2-5.2l-0.3-0.3c-0.3,0.1-0.9,0.4-1.8,0.4c-1,0-3.7-0.4-5.1-0.4c-7.2,0-12.8,4-12.8,11.9s5.7,11.9,13,11.9
	c1.9,0,5.2-0.4,6.4-1.2l1-4l-0.1-0.3H436z M457.6,306.9c-6.9,0-11.8,4.8-11.8,11.9c0,7.2,4.9,11.9,11.8,11.9c7,0,11.9-4.8,11.9-11.9
	C469.4,311.7,464.5,306.9,457.6,306.9z M457.6,329.4c-5.4,0-8.3-4.5-8.3-10.4s3-10.6,8.3-10.6S466,313,466,319
	C466,324.8,463,329.4,457.6,329.4z"/>
<path d="M-3.1,227.8l-1.6-0.4c-3-0.7-11.8-3.3-15.8-6.7c-3.3-2.7-4.6-11.5-4.6-16.4l-0.1-2.2h-81.2v2.4c-0.1,3.3-1.2,13.4-4.8,16.4
	c-4.8,3.9-15.7,6.6-15.8,6.6l-1.6,0.4l-0.3,1.6c-0.1,1.3-4.5,31.8,9.1,69c5.4,14.9,21.2,49.5,52.3,49.5c13.1,0,25.8-6.4,36.8-18.5
	c11.5-12.7,17.1-26.8,18.6-31c13.7-37.4,9.4-67.8,9.2-69L-3.1,227.8z M-16.5,296.8c-5.8,15.9-23.8,46.2-50.8,46.2
	c-28,0-42.8-32.3-47.8-46.2c-11.5-31.5-9.7-58.4-9.1-65.1c3.4-1,11.6-3.6,16.1-7.2c4.8-3.9,6-13.1,6.4-17.6h72
	c0.3,4.5,1.6,13.7,6.3,17.6c4.5,3.7,12.7,6.3,16.1,7.2C-6.9,238.4-5.2,265.3-16.5,296.8z"/>
<path d="M-80,229.4l0.3,1.6c1,1.5,2.1,3.7,4,4c0.3,0.6,2.8,1.3,3.4,0.6c1,0,1.2-1.9,2.5-0.9c0.6,0.3,0.9,1,0.9,1.8
	c-0.1,0.9-1,0.9-1.8,0.7c-3,1.5-2.1,4.8-2.1,7.8c0.4,1.2,0.9,2.4,1.8,3.6c2.1,0.9-0.4-1.9,1.5-2.1c0,0,1.8,2.8,2.7,4
	c0.4,0.3,0.6-0.1,0.7-0.4c0.9,0.7,2.1,1.5,3.4,1.6c0.4,0,0.9,0,0.9-0.4c-0.9-1-1.9-2.2-1.9-3.7c0.3-0.7,0.9,0.3,1.5-0.1v-1
	c-0.7-0.1-1.9-2.7-1.9-3.4c0-0.4,0.7-0.9,1.2-0.6c2.2,1.5,0.9,5.1,3.6,6.1c0.7,0.3,1.5,0.6,2.2,0.6c0,0-1-1.2-1-2.1
	c0.1-0.4,0.4-0.4,0.9-0.7c0.7,0.1,1,0.9,1.8,1.2c1.3,0.4,3,0.9,4.3,0.3c0-0.9-1.5-0.6-1.5-1.6c0-0.9,1.2-0.9,1.9-0.9
	c0.9-0.3,2.1,0,2.4-1.2c0,0-0.6-0.1-0.6-0.4c0.7-0.6,1.2-0.9,1.9-1.5c0.3-0.6,1.5-1.2,0.9-1.9c-0.3-0.1-1.8,0-2.4-0.1
	c-1-1.2-2.7-0.7-4-1.2c0.3-0.7,1-0.1,1.6-0.9c0-0.9-1-0.7-1.6-1c-1.8-0.9-3.1,0.9-4.8,1c-0.9,0.3-1.5-0.7-1.8-1.2
	c-0.1-0.6,0.4-0.9,0.7-1.3c1.9-0.4,3.7,0.9,5.7,0c0.3-0.1,1.5-0.1,1.2-1c0,0-0.4-0.1-0.4-0.3c1.6-0.4,3.1-1,4.3-2.4
	c0-1.8-1.5,0.3-2.4-0.1c-0.9-1.5,1.2-1.6,1.8-2.5c0.6-1.2,1.5-2.2,1.2-3.9c-0.9,0-0.7,0.9-1.6,0.7c-1.6-1,1-1.8,0.9-3
	c1.2-1.6,0.9-3.7,0.3-5.5l-0.6,0.4c-1,1-1.9,1.9-3.1,2.2c-0.4-0.1-1.2,0.9-1.3-0.1c-0.4-0.7,0.4-1.2,0.7-1.8c-0.7-0.6-1.5,0-2.1,0.3
	c-1.3,0.7-2.1,1.8-3.3,2.7c-0.4-0.7,0.4-1.5,0.4-2.1h-0.7c-1.9,0.6-2.8,2.5-3.9,3.6l0.1-1.2c-0.6,0-0.9,0.3-1,0.9
	c-1.3,1.6-1,4-1.9,5.8c-0.6,0.3-1.2,0.7-1.8,0.1c-0.3-0.9-0.4-1.9,0-2.8c1.2-0.4,3.9-5.2,2.8-6.7c-0.3,0.9-1,1.6-1.9,1.8
	c-0.4-0.9,0.6-1.2,0.7-2.1c-0.3-1,1.2-3.1,0.7-3.6c-0.4,0-0.4,0.6-0.7,0.7c-0.3,0-0.6,0.3-0.7,0c0.3-1.5,0-3.1,1.2-4.2l-0.1-0.1
	c-1.6,0.7-3.1,1.6-4.6,2.8c-0.3-0.6,0-1.5-0.1-1.9c-1.3,0.9-2.8,1.9-3.6,3.7c-0.9-0.4,0.1-1.2-0.3-1.8c-1.8,1.3-2.5,3.6-2.8,5.8
	c-0.6-0.1-0.4-0.9-0.9-1.2c-0.3,0-0.6,0-0.7,0.3c0.1,1.2,0.3,2.4,0.3,3.7c0.3,2.1,2.4,3.3,3.9,4.6c0.3,0.4,0.1,1.2-0.3,1.6
	c-1.8,0-2.2-1.8-3-2.8c-0.9-1-2.5-1.2-3.4-2.2c-0.6,0.3-0.1,1-0.3,1.3c0.6,0.4,0,1.5,0.4,2.1c-0.4,1.3,0.9,2.1,1,2.8
	C-79,230-79.3,229.1-80,229.4z M-74.5,229.9c0.9,1.2,2.8,1.6,4,2.5c0.9,0.3,0.6-0.7,0.6-1.3c-0.4-2.2-0.6-4.6-0.4-7.2
	c0.6-0.6,0.9-4.6,0.9-4.6c0.1-1.2,1.2-2.1,1.5-3.4l0.4-0.4c-0.1,2.4-1.8,4.5-1.5,7.2c-0.7,3.9-0.6,8.5,1.5,11.5
	c0.4,0.1,0.9,0.7,1.5,0.3c1.6-0.9,3.4-1.5,5.1-2.2c1-0.6,7.9-4.8,9.1-7c1.5-1.5,2.4-2.8,3.6-4.6c0.1,1.2-1.5,1.8-1.2,2.8
	c-2.7,4.2-6.9,7-10.7,9.5c-1.9,0.9-5.8,2.8-5.8,2.8c0.9,1.8,2.8,2.2,4,3.7c1.6,1.2,4,1.3,6,2.1c1.5,0.3,5.8,0.1,6.6,0
	c-0.4,1-1.8,0.3-2.5,0.7c-1.3,0.3-3.1-0.1-4.5,0c-3.6-1-7-2.2-9.8-5.2c-1,0.9-1.9,2.2-1.5,3.9c-0.3,0.1,0.7,2.7,0.6,3.7
	c0.6,0.9,2.2,3.6,2.4,3.9c-0.7,0.1-0.9-0.9-1.5-1c-0.6-1.3-1.5-2.7-2.1-4c0.1-0.4-0.1-0.9-0.4-1c-0.1-2.1,0-4.3,1.5-5.8
	c0.3-1-0.4-1.5-1-2.1c-0.3,0-3.4-2.1-3.9-2.1c-1-1-2.5-1.6-3.6-2.8c-0.3-0.7-0.9-1.5-0.9-2.2C-76.8,228.5-75.3,229.4-74.5,229.9z"/>
<path d="M-17.1,238.1c-0.6,0-0.9,0.7-1.5,0.1c-0.1-0.3,0.1-0.3,0.3-0.6c0-0.3,0-0.7-0.4-0.9c-1.8,0-3.9,0.7-4.9,2.4
	c-0.1,0-0.3,0-0.4,0c0.1-0.6,0.6-1.2,0.4-1.8c-0.6,0.3-1.3,0-1.9,0.3c-0.4,0.1-1,0.6-1.2,0.9c-1.8,0.9-0.6,3.6-2.5,4.5
	c-0.6,0.4-1-0.3-1.3-0.7c0.3-2.2,2.5-2.8,3.7-4.6c0-0.9,0.6-1.5,0.6-2.2c-0.4-0.6-0.9,0.3-1.3,0c-0.6-0.1-0.7-0.9-0.3-1.2
	c0.9-0.4,2.7-3,3.1-3.3c-0.4-0.6-0.9,0.1-1.5,0c-0.6-0.3,0.1-0.6,0-0.9c1.2-0.9,1.8-1.3,3-2.4c-0.1-0.4-0.9-0.1-1.3-0.3
	c-2.7,0.3-5.8-0.1-7.8,1.9c-0.1-0.6,0.3-1.2,0.1-1.8c-0.4-0.1-2.8,1.6-3.6,2.2c-0.6,0.9-0.9,1.9-1.3,2.5c0-0.9-0.4-1.5-0.4-2.2
	c-1.9,1.5-2.4,4.2-1.8,6.6c-0.7,0.7,0.3,1.5,0.1,2.2c-0.1,0.3-0.4,0.7-0.9,0.6c-0.7,0-0.7-0.9-0.9-1.3c0.1-1.2-0.6-2.4-0.7-3.7
	c-0.9-0.7-0.1,1-0.9,1.2c-0.6,1.6-1.9,3.1-1.5,4.8c-0.3,0.3,0,1.2-0.9,0.9c-0.3,1.2,0,3,0.4,4.3c1.3,0.9,2.1,1.8,3.7,1.9
	c1.3,0,1-2.1,2.7-1.5c1.2,1.2,0.9,2.8,0.3,4.2c-0.4,0-1,0.1-1.3-0.4c-1.8,0-3,1.5-3.6,3c0.7,1.8-0.9,2.2-1.2,3.7c0,0.1,0,0.9,0,1
	c-0.4,0.4,0.4,2.1,0.4,2.4c1.5,1.9,0.6-1.2,1.8-1.2c-0.3,0.9,0.4,1.3,0.4,2.2c0.9,1.9,2.2,2.8,4,3.6c0.4,0.1,0.3-0.3,0.3-0.4
	c-1.2-1.3-0.7-3.1-0.4-4.6c0-0.3,0-0.9,0.4-0.7c0.4,0.3,0.6,0.9,0.6,1.3c1.2-0.1,0.3-1.6,0.9-2.2c-0.3-0.9-0.9-1.8-0.9-2.7
	c-0.3-0.6,0.4-0.9,0.9-1.2c0.6,0,1,0.7,1.3,1.2c0.1,2.4-1.2,4,0,6.4c0.4,0.1,0.9,0.6,1.2,0c0.6,1,1.8,1.8,2.2,2.8
	c0.4,0.1,0.9,1,1.2,0.3c0.1-0.4-0.1-0.7-0.3-1c1-0.6,1,1.2,1.9,1.6c1.6,1.2,3.6,1.6,5.5,1.3c0,0-0.4-0.7-0.7-0.9
	c0-0.7-0.9-0.7-0.4-1.5c1.6,0.7,3.7,0.7,5.7,0.7c0.7,0,3.4-1,3.3-1.8c0,0-3.6-1.3-4.3-2.5c-0.3-1.2,1.5-0.4,1.9-0.9
	c-0.7-1-2.1-1.2-2.2-2.8c-0.4,0-0.9,0.1-1.3-0.1c-0.3-0.1-0.6-0.6-0.9-0.9c0.3-0.6,1-0.4,1.6-0.4c0-0.3-0.1-0.7-0.4-0.9
	c-1.3-0.6-3-1.6-4.6-0.7c-1.2,0.3-2.2,0-3-0.7c0-0.4-0.1-0.9,0.1-1.3c1.5-1,3,0.7,4.5,1c2.2,0.3,4.9-0.1,6.7-1.8
	c-0.4-0.6-1.9,0-1.9-1.2c0.3-0.7,1.2-0.7,1.9-0.6c1.3-0.7,3-1.2,3.4-2.7h-0.9c-0.4-0.1-0.3-0.7-0.6-0.9c0.9-1.2,2.1-2.7,2.2-4.3
	c-0.3,0-0.6,0-0.7,0c0-0.4,1.5-3.4,1.3-4.5C-13.6,237.5-15.1,238.5-17.1,238.1z M-17.3,242.4c-2.4,2.2-5.2,3.1-8,4.5
	c-2.1,0.4-7,1.6-7.3,1.5c-0.7-0.1-1,0.1-1.5,0.6c0,0.9,0.9,1,0.9,1.8c1.5,2.5,3.4,5.7,6.4,7.5c0.7,0.9,1.8,0.9,2.5,1.8
	c1.3,0.6,2.8,0.9,3.9,2.1h-0.9c-0.4-0.6-1.5-0.4-1.9-1.2c-0.6,0.1-3.1-1.5-4-2.2c-1.3-0.1-1.9-1.9-3.1-2.4c-1.8-1.8-2.8-4.2-4.5-6.3
	c-0.4,0-0.3,0.4-0.6,0.7c-0.7,0.7-2.5,2.5-2.1,3.1c-0.6,0.3-1.2,5.1-1.5,7h-0.1c-0.3-1,0.3-7.2,1.5-8.6c0.7-1.3,2.7-2.5,1.9-4.6
	c-0.9-2.2-3.6-2.8-4.8-4.9c-0.7-1.2-1.5-2.5-1.5-4.2c0.7,0.1,0.3,1.2,0.9,1.6c-0.1,0.9,1.9,2.1,1.9,2.8c1,0.4,1.2,1.3,2.4,1.9
	c1.6-0.1,0.4-1.9,0.9-2.8c0.6-1.3,0.9-3,1.6-4.3c-0.3-0.6,3.7-6.1,6.6-7.8c-1.3,2.2-3.7,3.7-4.9,6.3c-0.3,0.4-2.5,4.9-2.5,7.2
	c-0.6,0.6-0.3,1.5-0.4,2.4c0.4,0.6,0.4,1.5,1.2,1.6c2.1,0,7.9-1.2,9.1-1.3c2.1-0.6,4.3-1.8,6.1-3c0.4-0.1,4.5-3.1,4.9-3.4v0.1
	C-15.2,240.9-16.7,241.3-17.3,242.4z"/>
<path d="M-106.9,265c0.1,0.4,1.2,3,2.1,2.8l0.1-1.8c0.3-0.3,1.5-2.8,2.4-3.3c0.3,0.1,0.4,1.5,0.4,1.9c1.6-0.9,1.8-2.8,2.8-4
	c0.3-0.1,0.9-2.8,1.6-3.4l0.7,0.7c-0.3,0.6,0.6,0.7,0.3,1.3c0.7,0,0.3-1,0.7-1.3c0.7-1.5,0.4-3.3,0.3-4.8c-0.7-0.6-0.4-1.5-1-2.1
	c0.3-0.9-0.6-2.2,0.7-2.5c1-0.4,1.6,0.6,2.1,1.2c0,1,0,2.1-0.4,2.8c0,1,0,1.8,0,3c0.1,0.1,0.7,1.9,1.2,1.9c0.4-0.6,0.3-1.8,1-2.1
	c0.7,1.6,0.6,3.4,1,5.1c0.7,0.6,0.6-0.6,1.2-0.7c1.5,1.5-0.3,3.1-0.1,4.6c1.5,0,2.2-1.8,3.6-2.4c1.3-1.2,2.2-3.1,2.1-5.1
	c0.4,0.3,0.7,0.7,0.9,1.2c0.1,0.1,0.6,0.1,0.9-0.1c0-1.3,0.1-3-0.1-4.3c-0.4-0.3-0.1-1-0.7-1.3c0.3-0.6-0.9-0.7-0.1-1.2
	c0.1,0.3,1.8,1.2,1.8,1.2c0.7-0.6-0.1-1.2-0.1-1.9c-0.9-1.6-1.9-3.3-3.9-3.9c-0.9-0.3-1.9,0-2.5-0.9c-0.1-0.3-0.1-0.9,0.1-1
	c0.7,0,1.2,0.1,1.6,0.4c1.2,1.9,3.7,1.2,5.7,1.3c0.4-0.3,1.3,0.4,1.8,0c-1.2-1.3-2.1-3.3-3.3-4.9c-0.4,0-0.9-0.4-1.2-0.7
	c0.3-0.6,1.2,0,1.5-0.6c-1.6-2.2-4.3-3.4-7.2-3.3c-0.7,0.6-2.2,0-2.4,1.2c-1,0.4-0.6,1.6-1.6,1.9c-0.7,0.3-1.2-0.1-1.6-0.4
	c-0.9-1.6,0.7-2.8,0.6-4.5c-0.3-0.3,0-0.9-0.1-1.3c0-0.4-1.5-3.1-2.4-3.6c-1.6-0.6-3.1-2.1-5.1-2.2c-0.6,0.7,0.7,0.6,0.6,1.2
	c0.1,0.4-0.3,0.1-0.4,0.4c-2.1-1.6-4.9-0.1-6.7,0.9c0,0,3,1.8,4.5,2.8c-0.6,0.4-1,1-1.9,1c0.6,1.5,4.6,1.8,5.1,2.1
	c0.6,0.3,0.6,0.9,0.9,1.3c-1.8,1-3.7,0-5.1-0.9c0,0-1.6-2.5-3.1-2.5c-0.6-0.1-1.8-0.3-2.2,0.1c0.4,0.3,1.5,0.6,1.3,1.3
	c-0.3,0.3-0.7,0.6-1.2,0.4c-1.9-0.3-4,0.3-5.7,1c-0.1,0.3-0.9,0.1-0.7,0.7c0.3,0.1,1,0.4,1.5,0.3c0.1,0,0.4,0.1,0.3,0.4
	c-0.4,0.3-0.9,0.9-1.5,0.7c-1.5,0.9-2.8,2.1-3,3.7c0.3,0,1.2-0.6,1.5-0.3c0,0.1,0,0.9-0.3,1.2c-0.9,0.9-1.3,1.9-1.8,2.8
	c0,0.6-0.7,1-0.1,1.6c-0.4,0.4,0.4,0.9,0,1.2c0.6,0,3.4-2.8,4.9-3.3c0-0.6,0-0.1-0.1,0.1c-0.1,0.6-0.6,1.2-0.4,1.8
	c0.4-0.1,1-0.3,1.6-0.6c1.6-0.1,2.4-1.8,3.7-2.4c0.6,0.9-0.9,1.3-0.7,2.1c1.2-0.4,2.4-0.6,3.6-1.2c1.3-0.9,2.5-2.5,4.3-2.2
	c-0.1,0.6,0.3,1.5-0.4,1.8c-0.9,0.3-1.9,0.6-2.8,0.9c-1.3,1.2-3.4,1.8-4,3.7c-1,2.2,1,0,1.5,1.2c-0.6,1.9-2.1,3.9-1.9,6.3
	c0.4,0.1,0.6-0.1,0.7-0.4c0.4,0.6,0.9-0.4,1.3,0.3c-0.3,0.9-0.1,4.9,0.3,5.7c0.1-0.4,0.1-1,0.7-1.2
	C-107.2,263.2-107,264.1-106.9,265z M-104.2,254.8c0.6-0.6,1.3-3.9,1.6-4.9c1-2.8,2.8-5.2,4.6-7.8c-0.1-0.6,0.9-0.7,0.6-1.5
	c-2.1-0.9-4.8-0.4-7.3-0.4c-4,0.9-7.8,1.5-11,4l-0.6,0.3c0.4-0.4,1.2-1.5,1.8-1.6c4.6-2.5,9.4-4,15.1-3.6c0.4,0.1,1.9,0.4,2.1-0.3
	c0.1-1.5-1.9-5.5-3.3-5.8c-1.2-0.9-2.4-1.8-3.4-2.4c0.1-0.1,0.6,0,0.9,0c0.6,0.3,4,2.7,4.6,3.7c1.8,1.6,2.4,4.2,2.4,6.4
	c3,1.3,4.8-0.7,7.9,0c1.8,0.4,4.2,1.5,5.2,2.8c-1.5-0.7-3.1-1.8-5.1-1.9c-1.6-0.1-3.6-0.4-5.1,0.1c-0.6-0.1-1.3-0.6-1.5,0.3
	c3.1,3.1,6.4,7,7.6,11.8c0.3,1.5,0.4,3.3,0.6,4.6l-0.4,1c-0.3-2.1-0.3-4.5-1.3-6.4c-0.1-0.9-0.6-1.8-0.9-2.7
	c-0.4-0.9-4.2-5.4-4.5-6.4c-0.4-0.1-2.7-2.2-3.1-2.2c-0.4,0.4-2.2,3.1-2.8,3.7c-1.6,1.8-1.8,4.2-3.1,6.1c-0.6,1.6-2.4,7.3-2.7,8.5
	h-0.1C-105.8,259.8-104.3,256.2-104.2,254.8z"/>
<path d="M-94.1,238.5c0,0.1,0,0.3,0.1,0.3c0,0,0,0,0.1,0s0.3,0,0.3-0.1c2.7-4.8,5.8-6.9,10-6.7c0.3,0,0.4-0.1,0.6-0.3
	s0.1-0.4,0.1-0.6v-0.7c0-0.4-0.3-0.6-0.9-0.7C-92.7,230.2-93.9,238.5-94.1,238.5z M-39.1,249.2l0.4-0.7c0,0-2.7-0.1-3.6-0.3
	c-0.9-0.1-3-0.6-3-0.6l-1.2-0.6l-2.8-1l-1.2,0.9c0.7,1,1.5,1.2,3.1,1.9C-45.6,249.5-39.1,249.2-39.1,249.2z M-31.5,265.2
	c-0.1-0.1-0.4-0.4-0.6-0.7h-0.1c-0.9,0.7-0.9,3.3-0.7,4c0,0.1,0.1,0.1,0.1,0.3l1.5,0.1c0.1,0,0.1,0,0.1-0.1
	c-0.1-0.9-0.1-2.8-0.1-3.3C-31.3,265.3-31.3,265.2-31.5,265.2z M-27.7,270.7l1.2-0.4c0,0,0.1-0.1,0-0.1c-0.9-2.2-2.2-4.6-2.2-4.6
	l-0.3,0.4c0,0,0.9,2.7,1.2,4.6C-27.9,270.7-27.9,270.7-27.7,270.7z M-26.4,277.4c1.5,0,2.7-1.2,2.7-2.8c0-1.6-1.2-2.8-2.7-2.8
	s-2.7,1.2-2.7,2.8C-29.1,276.2-27.9,277.4-26.4,277.4z M-34.9,273.1c0,1.5,1,2.5,2.5,2.5c1.3,0,2.5-1.2,2.5-2.5c0-1.5-1-2.5-2.5-2.5
	C-33.7,270.6-34.9,271.7-34.9,273.1z M-38.2,271.7c-1.5,0-2.7,1.3-2.7,3s1.2,3,2.7,3s2.7-1.3,2.7-3
	C-35.3,273.1-36.7,271.7-38.2,271.7z M-20,275.6c1.3,0,2.5-1.2,2.5-2.5s-1-2.5-2.5-2.5c-1.3,0-2.5,1.2-2.5,2.5S-21.3,275.6-20,275.6
	z M-33.8,281.1c0,1.5,1.3,2.8,2.8,2.8c1.6,0,2.8-1.2,2.8-2.8c0-1.5-1.3-2.8-2.8-2.8C-32.5,278.3-33.8,279.6-33.8,281.1z
	 M-37.6,279.6c-1.5,0-2.7,1.2-2.7,2.7c0,1.5,1.2,2.7,2.7,2.7s2.7-1.2,2.7-2.7C-35,280.8-36.2,279.6-37.6,279.6z M-24.3,278.5
	c-1.3,0-2.5,1.2-2.5,2.7s1,2.7,2.5,2.7c1.3,0,2.5-1.2,2.5-2.7C-21.8,279.6-23,278.5-24.3,278.5z M-18,277.3c-1.5,0-2.7,1.3-2.7,2.8
	c0,1.6,1.2,2.8,2.7,2.8c1.5,0,2.7-1.3,2.7-2.8C-15.2,278.5-16.5,277.3-18,277.3z M-37.4,288.3c0,1.6,1.2,2.8,2.7,2.8
	c1.5,0,2.7-1.3,2.7-2.8c0-1.6-1.2-2.8-2.7-2.8C-36.2,285.5-37.4,286.7-37.4,288.3z M-25,287.5c0-1.5-1.2-2.7-2.7-2.7
	s-2.7,1.2-2.7,2.7s1.2,2.7,2.7,2.7C-26.4,290.2-25,289-25,287.5z M-20.4,284.4c-1.3,0-2.5,1.2-2.5,2.7c0,1.5,1,2.7,2.5,2.7
	c1.3,0,2.5-1.2,2.5-2.7C-17.9,285.6-19.1,284.4-20.4,284.4z M-23,291.1c-1.3,0-2.5,1.2-2.5,2.5s1,2.5,2.5,2.5c1.3,0,2.5-1.2,2.5-2.5
	S-21.5,291.1-23,291.1z M-32,294c0,1.5,1,2.5,2.5,2.5c1.3,0,2.5-1.2,2.5-2.5c0-1.5-1-2.5-2.5-2.5C-30.9,291.4-32,292.6-32,294z
	 M-35.3,292.3c-1.3,0-2.5,1-2.5,2.4s1,2.4,2.5,2.4c1.3,0,2.5-1,2.5-2.4S-34,292.3-35.3,292.3z M-30.6,301c0-1.5-1-2.5-2.5-2.5
	c-1.3,0-2.5,1.2-2.5,2.5c0,1.5,1,2.5,2.5,2.5C-31.8,303.6-30.6,302.5-30.6,301z M-26.8,297.2c-1.3,0-2.5,1.2-2.5,2.5
	c0,1.5,1,2.5,2.5,2.5c1.3,0,2.5-1.2,2.5-2.5S-25.5,297.2-26.8,297.2z M-29.4,303.9c-1.5,0-2.7,1.3-2.7,2.8c0,1.6,1.2,2.8,2.7,2.8
	c1.5,0,2.7-1.3,2.7-2.8C-26.5,305.1-27.9,303.9-29.4,303.9z M-95.7,318.1c-0.1,0-0.1,0.1-0.1,0.3c1.5,1.9,11.9,15.4,28.6,15.4
	s29.1-13.3,30.9-15.4c0.1-0.1,0-0.3-0.1-0.3H-95.7z M-88.4,273.8L-88.4,273.8l-4.9-0.1l0,0l-1.8-4.6h-0.1l-1.6,4.6l0,0h-4.8
	c0,0-0.1,0,0,0.1l3.9,3.3l0,0l-1.2,4.8c0,0,0,0.1,0.1,0l3.9-2.8l0,0l3.9,2.8h0.1l-1.2-4.8l0,0L-88.4,273.8z M-84.5,303.3
	L-84.5,303.3c-3.9,1.8-8.9,1.5-13.4-1.2c-5.8-3.6-8.8-10.3-7.2-15.9l0,0l0,0c0,0,0-0.1-0.1-0.1l0,0l0,0c-0.6,0.6-1,1.3-1.5,2.1
	c-3.1,5.7-0.4,13.4,6,17.3C-95,309.2-87.9,308.1-84.5,303.3z M-45.8,297.4C-45.8,297.4-45.8,297.2-45.8,297.4l-4.9-0.1l0,0l-1.8-4.6
	h-0.1l-1.8,4.6l0,0h-4.8c0,0-0.1,0,0,0.1l3.9,3.3l0,0l-1.2,4.8c0,0,0,0.1,0.1,0l3.9-2.8l0,0l3.9,2.8h0.1l-1.2-4.8l0,0L-45.8,297.4z
	 M-57.1,293.7c0.1,0.1,0.4,0.1,0.7,0l2.1-2.1c0.1-0.1,0.1-0.4,0-0.7l-10.1-10.1l10.1-10.1c0.1-0.1,0.1-0.3,0.1-0.3
	c0-0.1,0-0.3-0.1-0.3l-20.6-18.8c-0.3-0.3-0.9-0.1-0.9,0.3v64.2c0,0.1,0.1,0.3,0.3,0.3h3.4c0.1,0,0.3-0.1,0.3-0.3v-56l12.4,10.9
	L-69.8,281l0,0l0,0L-57.1,293.7z M-82.9,232.5l-1.8,0.6c0,0-0.1,0.1,0,0.1c1.5,0.9,3.9,1.5,5.8,1.5V234c-1.8-0.3-3.3-1.2-3.7-1.5
	C-82.7,232.5-82.9,232.5-82.9,232.5z M-89.4,230.3c0.1,0.1,0.4,0.1,0.6,0l0.6-0.4c0.3-0.1,0.3-0.6,0-0.9c-2.7-2.2-8.6-9.2-10.1-13.9
	c-0.6-1.9-1.2-0.9-1.2-0.9l-0.9,2.4c-0.1,0.4-0.1,0.7,0,1.2C-98.7,222.7-92.3,228.4-89.4,230.3z"/>
</svg>
